PathFileType	4	(X/Y/Z)	/Users/itak/Documents/Research/Walk-IL/dataset/trc/00249_00009.trc
DataRate	CameraRate	NumFrames	NumMarkers	Units	OrigDataRate	OrigDataStartFrame	OrigNumFrames
100.000000	100.000000	4	55	mm	100.000000	123	493
Frame#	Time	RPSI			LPSI			L3			STRN			T10			C7			CLAV			RBAK			LBAK			LSHO			LUPA			LAEL			LAOL			LWTS			LWPS			LFRA			LIFD			LHPS			LHTS			RSHO			RUPA			RAEL			RAOL			RWTS			RWPS			RFRA			RIFD			RHTS			RHPS			RBHD			LFHD			RFHD			LBHD			LHIP			RHIP			RASI			LASI			LKNE			LTHI			LANK			LTIP			LTOE			LMT1			LMT5			LHEE			RKNE			RTHI			RANK			RTIP			RTOE			RMT1			RMT5			RHEE			*53			*54			
		X1	Y1	Z1	X2	Y2	Z2	X3	Y3	Z3	X4	Y4	Z4	X5	Y5	Z5	X6	Y6	Z6	X7	Y7	Z7	X8	Y8	Z8	X9	Y9	Z9	X10	Y10	Z10	X11	Y11	Z11	X12	Y12	Z12	X13	Y13	Z13	X14	Y14	Z14	X15	Y15	Z15	X16	Y16	Z16	X17	Y17	Z17	X18	Y18	Z18	X19	Y19	Z19	X20	Y20	Z20	X21	Y21	Z21	X22	Y22	Z22	X23	Y23	Z23	X24	Y24	Z24	X25	Y25	Z25	X26	Y26	Z26	X27	Y27	Z27	X28	Y28	Z28	X29	Y29	Z29	X30	Y30	Z30	X31	Y31	Z31	X32	Y32	Z32	X33	Y33	Z33	X34	Y34	Z34	X35	Y35	Z35	X36	Y36	Z36	X37	Y37	Z37	X38	Y38	Z38	X39	Y39	Z39	X40	Y40	Z40	X41	Y41	Z41	X42	Y42	Z42	X43	Y43	Z43	X44	Y44	Z44	X45	Y45	Z45	X46	Y46	Z46	X47	Y47	Z47	X48	Y48	Z48	X49	Y49	Z49	X50	Y50	Z50	X51	Y51	Z51	X52	Y52	Z52	X53	Y53	Z53	X54	Y54	Z54	X55	Y55	Z55	

124	1.23	-1453.75537109375	1052.230590820312	-306.5342102050781	-1451.990600585938	1057.13037109375	-426.4774169921875	-1446.777099609375	1139.866577148438	-378.2880859375	-1180.210693359375	1308.0517578125	-378.4971618652344	-1441.328979492188	1261.560302734375	-366.6415100097656	-1361.56982421875	1518.027099609375	-362.8330078125	-1198.861083984375	1427.704711914062	-371.0398254394531	-1439.301513671875	1381.606811523438	-287.8042297363281	-1388.329223632812	1488.376953125	-473.5642395019531	-1301.3544921875	1487.717041015625	-534.1914672851562	-1354.4580078125	1378.809326171875	-616.641357421875	-1386.99609375	1173.942016601562	-654.4268798828125	-1454.009033203125	1167.773315429688	-598.6378784179688	-1329.414306640625	925.5813598632812	-617.59716796875	-1367.06298828125	917.3651123046875	-694.0850830078125	-1384.64892578125	1065.574829101562	-675.6237182617188	-1354.06201171875	733.4082641601562	-635.097412109375	-1363.017211914062	827.1445922851562	-695.66650390625	-1313.330078125	822.0593872070312	-647.88232421875	-1297.598876953125	1473.195434570312	-196.7155151367188	-1319.0966796875	1411.01318359375	-127.5442276000977	-1364.899658203125	1131.470336914062	-93.18920135498047	-1393.178833007812	1128.634033203125	-184.2325897216797	-1243.402709960938	905.2115478515625	-131.2494049072266	-1300.944458007812	896.5797729492188	-67.86968231201172	-1344.6435546875	1061.30712890625	-79.60841369628906	-1249.276489257812	711.455810546875	-134.4124145507812	-1217.959228515625	780.8932495117188	-112.8523712158203	-1271.379272460938	786.9534301757812	-63.7603874206543	-1324.568237304688	1666.812133789062	-338.7197265625	-1101.26123046875	1701.874267578125	-364.9739990234375	-1133.139282226562	1699.213012695312	-270.2812194824219	-1239.74267578125	1673.9521484375	-450.3981323242188	-1345.207763671875	996.1438598632812	-562.7965698242188	-1367.7333984375	998.90966796875	-195.1031799316406	-1264.104614257812	1036.421142578125	-227.36767578125	-1246.770385742188	1027.831665039062	-506.1573791503906	-1147.824462890625	541.5601196289062	-501.8636169433594	-1203.80810546875	674.5903930664062	-536.3068237304688	-1231.848388671875	55.35814666748047	-520.0910034179688	-1192.842163085938	311.9015197753906	-522.0883178710938	-1027.474243164062	80.14544677734375	-450.0365905761719	-1096.913208007812	68.54597473144531	-411.9126892089844	-1104.93408203125	58.20202255249023	-525.2295532226562	-1298.036865234375	60.99672317504883	-475.205810546875	-1405.540649414062	508.2479858398438	-260.2489929199219	-1339.294677734375	767.73046875	-199.0263061523438	-1519.406372070312	37.14059066772461	-328.9307250976562	-1414.39404296875	392.7475891113281	-284.1948852539062	-1304.589965820312	47.89811325073242	-343.4038696289062	-1353.93359375	44.13729476928711	-393.237548828125	-1413.484741210938	41.17921829223633	-288.8542785644531	-1574.015502929688	35.71831130981445	-395.1945190429688	nan	nan	nan	nan	nan	nan	
125	1.24	-1449.464599609375	1051.076293945312	-305.6073913574219	-1447.697265625	1056.012573242188	-425.5380859375	-1442.56689453125	1139.125366210938	-377.1047973632812	-1175.767822265625	1307.234985351562	-377.778564453125	-1436.86328125	1260.815185546875	-365.2982788085938	-1357.00146484375	1517.191772460938	-361.6222534179688	-1194.381958007812	1426.944580078125	-370.2150573730469	-1434.626831054688	1380.809204101562	-286.3694763183594	-1384.034423828125	1487.700073242188	-472.2009887695312	-1297.214721679688	1487.102416992188	-533.0636596679688	-1350.936279296875	1378.448974609375	-615.27685546875	-1384.866943359375	1174.0048828125	-653.315185546875	-1451.47900390625	1168.066650390625	-597.0133056640625	-1329.386596679688	924.8525390625	-618.0840454101562	-1367.70849609375	917.4628295898438	-694.33056640625	-1383.633178710938	1065.745483398438	-674.9984741210938	-1355.919311523438	732.6300659179688	-636.168212890625	-1364.84033203125	827.1978149414062	-696.2898559570312	-1314.9580078125	821.1880493164062	-648.9140625	-1292.732055664062	1472.410766601562	-195.6874084472656	-1314.026245117188	1410.222290039062	-126.4422836303711	-1359.33154296875	1130.6005859375	-91.88437652587891	-1387.936157226562	1127.716918945312	-182.8599395751953	-1237.22607421875	904.993896484375	-130.5235290527344	-1294.290893554688	895.910400390625	-67.08722686767578	-1338.751708984375	1060.458251953125	-78.4140625	-1241.58154296875	711.1910400390625	-134.0259704589844	-1210.646606445312	780.8139038085938	-112.3773651123047	-1264.002563476562	786.4733276367188	-63.2052001953125	-1320.039794921875	1665.8271484375	-337.979248046875	-1096.743408203125	1701.074951171875	-363.8427429199219	-1128.816284179688	1698.50244140625	-269.2195739746094	-1235.0009765625	1672.930053710938	-449.5107116699219	-1340.748413085938	995.5084838867188	-561.8978881835938	-1363.18701171875	997.8779907226562	-194.08837890625	-1259.770629882812	1035.575317382812	-226.4699096679688	-1242.26904296875	1027.379028320312	-505.3082885742188	-1140.208618164062	542.470458984375	-499.4862976074219	-1197.22998046875	674.9298706054688	-534.73583984375	-1211.780151367188	53.96015548706055	-516.6461791992188	-1179.297485351562	311.6968994140625	-519.4010009765625	-1008.84375	82.29566955566406	-443.7345275878906	-1078.783569335938	69.91973114013672	-406.4741516113281	-1084.805297851562	58.61361312866211	-519.78369140625	-1278.623779296875	58.84050369262695	-472.7696838378906	-1402.773315429688	507.6399536132812	-260.0064392089844	-1334.940673828125	766.743896484375	-198.5224761962891	-1519.368041992188	37.24687576293945	-329.0555419921875	-1412.342163085938	392.2351989746094	-284.0233154296875	-1304.491455078125	47.75046920776367	-343.4682312011719	-1353.869140625	43.97570037841797	-393.3310852050781	-1413.457397460938	41.19612121582031	-288.8557739257812	-1574.008056640625	35.90916061401367	-395.1912841796875	nan	nan	nan	nan	nan	nan	
126	1.25	-1445.009521484375	1049.892700195312	-304.7234191894531	-1443.201538085938	1054.803955078125	-424.6420288085938	-1438.192260742188	1138.302978515625	-375.9732666015625	-1171.204223632812	1306.380126953125	-377.0562133789062	-1432.2841796875	1259.978393554688	-364.0319519042969	-1352.343383789062	1516.285400390625	-360.4552917480469	-1189.800170898438	1426.135375976562	-369.4017639160156	-1429.883178710938	1379.923583984375	-285.01806640625	-1379.632080078125	1486.945068359375	-470.8983459472656	-1292.940063476562	1486.428466796875	-531.9699096679688	-1347.250610351562	1378.014404296875	-613.9285888671875	-1382.491455078125	1174.003662109375	-652.2346801757812	-1448.733520507812	1168.289184570312	-595.46044921875	-1329.2080078125	924.0806274414062	-618.4832153320312	-1368.060913085938	917.51953125	-694.52734375	-1382.3603515625	1065.851318359375	-674.3778686523438	-1357.599853515625	731.8082885742188	-637.0811157226562	-1366.371826171875	827.224365234375	-696.8223876953125	-1316.4091796875	820.2733154296875	-649.787841796875	-1287.832397460938	1471.56884765625	-194.6884307861328	-1308.917846679688	1409.361938476562	-125.3847274780273	-1353.708374023438	1129.667724609375	-90.59959411621094	-1382.634521484375	1126.728515625	-181.5078735351562	-1230.898315429688	904.7744750976562	-129.8233795166016	-1287.495361328125	895.1983642578125	-66.35000610351562	-1332.781616210938	1059.548828125	-77.23800659179688	-1233.661376953125	710.9259643554688	-133.724853515625	-1203.119995117188	780.7550659179688	-111.9508438110352	-1256.41943359375	785.9722900390625	-62.71053314208984	-1315.446411132812	1664.794311523438	-337.2552490234375	-1092.147094726562	1700.23095703125	-362.7197875976562	-1124.431030273438	1697.741821289062	-268.166259765625	-1230.1923828125	1671.865600585938	-448.6382141113281	-1336.004028320312	994.7427368164062	-560.9909057617188	-1358.539184570312	996.8438720703125	-193.0966339111328	-1255.26953125	1034.707275390625	-225.5823059082031	-1237.60888671875	1026.80859375	-504.4105834960938	-1132.6376953125	543.190673828125	-497.2425842285156	-1190.599487304688	675.1002807617188	-533.2723388671875	-1191.535400390625	52.68225479125977	-513.1756591796875	-1165.646728515625	311.4581298828125	-516.7654418945312	-990.3446044921875	84.68683624267578	-437.05078125	-1060.814819335938	71.49984741210938	-400.7926635742188	-1064.557495117188	59.14208984375	-514.06787109375	-1259.1044921875	56.79028701782227	-470.4620361328125	-1400.04052734375	507.0530395507812	-259.7290344238281	-1330.566162109375	765.744873046875	-197.9003143310547	-1519.34619140625	37.33048248291016	-329.1534118652344	-1410.323120117188	391.7679748535156	-283.8099670410156	-1304.409912109375	47.62470626831055	-343.5107421875	-1353.822021484375	43.85857391357422	-393.3871459960938	-1413.440185546875	41.20414352416992	-288.8333129882812	-1574.014526367188	36.11044692993164	-395.1568908691406	nan	nan	nan	nan	nan	nan	
127	1.26	-1440.3876953125	1048.690307617188	-303.8979797363281	-1438.491821289062	1053.515380859375	-423.8057250976562	-1433.634521484375	1137.398803710938	-374.9083862304688	-1166.517700195312	1305.490600585938	-376.3217163085938	-1427.59033203125	1259.046508789062	-362.843994140625	-1347.605712890625	1515.309936523438	-359.332763671875	-1185.111450195312	1425.28076171875	-368.5987548828125	-1425.071044921875	1378.94677734375	-283.7513427734375	-1375.12451171875	1486.107055664062	-469.6582946777344	-1288.532592773438	1485.692626953125	-530.9121704101562	-1343.409301757812	1377.50634765625	-612.6056518554688	-1379.894409179688	1173.939086914062	-651.1923217773438	-1445.792358398438	1168.440307617188	-593.9784545898438	-1328.842651367188	923.2760620117188	-618.8088989257812	-1368.114624023438	917.5309448242188	-694.6801147460938	-1380.841552734375	1065.891357421875	-673.767822265625	-1359.048950195312	730.9718627929688	-637.8423461914062	-1367.589477539062	827.2196044921875	-697.265380859375	-1317.628662109375	819.3438110351562	-650.5100708007812	-1282.894897460938	1470.669311523438	-193.7186889648438	-1303.77685546875	1408.435302734375	-124.3713226318359	-1348.027954101562	1128.674682617188	-89.34154510498047	-1377.261474609375	1125.669921875	-180.1782379150391	-1224.400024414062	904.54443359375	-129.1500549316406	-1280.559692382812	894.447509765625	-65.65048980712891	-1326.732055664062	1058.583740234375	-76.08499145507812	-1225.558349609375	710.6571044921875	-133.4952392578125	-1195.39404296875	780.7105712890625	-111.5685729980469	-1248.658935546875	785.4471435546875	-62.26797103881836	-1310.800048828125	1663.72265625	-336.5530090332031	-1087.477294921875	1699.342041015625	-361.6051635742188	-1119.98779296875	1696.934936523438	-267.1193542480469	-1225.323852539062	1670.763916015625	-447.78125	-1330.9501953125	993.848388671875	-560.0787353515625	-1353.815673828125	995.8118286132812	-192.1342620849609	-1250.617065429688	1033.819946289062	-224.6888732910156	-1232.77294921875	1026.105224609375	-503.447265625	-1125.121948242188	543.7037963867188	-495.1499328613281	-1183.92578125	675.0850219726562	-531.9248657226562	-1171.180786132812	51.53651428222656	-509.681884765625	-1151.970581054688	311.1914978027344	-514.2000122070312	-972.05712890625	87.37564086914062	-430.0386657714844	-1043.04248046875	73.31803131103516	-394.9375915527344	-1044.28173828125	59.84976959228516	-508.1348876953125	-1239.524169921875	54.83664321899414	-468.2559509277344	-1397.349853515625	506.4942626953125	-259.4139099121094	-1326.214599609375	764.7391357421875	-197.1526947021484	-1519.333984375	37.39264678955078	-329.2255249023438	-1408.348510742188	391.3383483886719	-283.5617065429688	-1304.340209960938	47.51103973388672	-343.5338439941406	-1353.781982421875	43.78411865234375	-393.4048461914062	-1413.43701171875	41.20255661010742	-288.7944641113281	-1574.0322265625	36.32627487182617	-395.0928955078125	nan	nan	nan	nan	nan	nan	
